<svg width="63" height="63" viewBox="0 0 63 63" fill="none" xmlns="http://www.w3.org/2000/svg">
<path d="M32.2312 4.38166C31.7618 4.19391 31.2382 4.19391 30.7688 4.38166L7.26977 13.7813L16.7344 17.5671L40.9646 7.87503L32.2312 4.38166ZM46.2656 9.99544L22.0354 19.6875L31.5 23.4734L55.7302 13.7813L46.2656 9.99544ZM59.0625 16.6892L33.4688 26.9267V58.1234L59.0625 47.8859V16.6892ZM29.5312 58.1234V26.9267L3.9375 16.6892V47.8859L29.5312 58.1234ZM29.3065 0.725779C30.7146 0.162533 32.2854 0.162533 33.6935 0.725779L61.7624 11.9533C62.5099 12.2523 63 12.9762 63 13.7813V47.8859C63 49.4959 62.0198 50.9438 60.5249 51.5417L32.2312 62.8592C31.7618 63.047 31.2382 63.047 30.7688 62.8592L2.47515 51.5417C0.980245 50.9438 0 49.4959 0 47.8859V13.7813C0 12.9762 0.490122 12.2523 1.23757 11.9533L29.3065 0.725779Z" fill="white"/>
</svg>
