<svg width="20" height="20" viewBox="0 0 23 23" fill="none" xmlns="http://www.w3.org/2000/svg">
<path d="M16.8794 14.8693C18.0161 13.3217 18.6875 11.4112 18.6875 9.34375C18.6875 4.18334 14.5042 0 9.34375 0C4.18334 0 0 4.18334 0 9.34375C0 14.5042 4.18334 18.6875 9.34375 18.6875C11.4117 18.6875 13.3228 18.0157 14.8706 16.8784L14.8693 16.8794C14.9117 16.9368 14.959 16.9919 15.011 17.0439L20.546 22.579C21.1074 23.1403 22.0176 23.1403 22.579 22.579C23.1403 22.0176 23.1403 21.1074 22.579 20.546L17.0439 15.011C16.9919 14.959 16.9368 14.9117 16.8794 14.8693ZM17.25 9.34375C17.25 13.7103 13.7103 17.25 9.34375 17.25C4.97725 17.25 1.4375 13.7103 1.4375 9.34375C1.4375 4.97725 4.97725 1.4375 9.34375 1.4375C13.7103 1.4375 17.25 4.97725 17.25 9.34375Z" fill="white"/>
</svg>
