<svg width="21" height="24" viewBox="0 0 21 24" fill="none" xmlns="http://www.w3.org/2000/svg">
<path d="M10.5 1.74193C12.5711 1.74193 14.25 3.40281 14.25 5.4516V6.19354H6.75V5.4516C6.75 3.40281 8.42893 1.74193 10.5 1.74193ZM15.75 6.19354V5.4516C15.75 2.58329 13.3995 0.258057 10.5 0.258057C7.6005 0.258057 5.25 2.58329 5.25 5.4516V6.19354H0V21.0322C0 22.6713 1.34315 24 3 24H18C19.6569 24 21 22.6713 21 21.0322V6.19354H15.75ZM1.5 7.67741H19.5V21.0322C19.5 21.8518 18.8284 22.5161 18 22.5161H3C2.17157 22.5161 1.5 21.8518 1.5 21.0322V7.67741Z" fill="white"/>
</svg>
