<svg width="63" height="63" viewBox="0 0 63 63" fill="none" xmlns="http://www.w3.org/2000/svg">
<path d="M7.875 3.9375C5.70038 3.9375 3.9375 5.70038 3.9375 7.875V39.375C3.9375 41.5496 5.70038 43.3125 7.875 43.3125H45.619C47.7076 43.3125 49.7107 44.1422 51.1875 45.619L59.0625 53.494V7.875C59.0625 5.70038 57.2996 3.9375 55.125 3.9375H7.875ZM55.125 0C59.4742 0 63 3.52576 63 7.875V58.247C63 60.001 60.8794 60.8794 59.6391 59.6391L48.4033 48.4033C47.6648 47.6648 46.6633 47.25 45.619 47.25H7.875C3.52576 47.25 0 43.7242 0 39.375V7.875C0 3.52576 3.52576 0 7.875 0H55.125Z" fill="white"/>
<path d="M11.8125 13.7812C11.8125 12.6939 12.6939 11.8125 13.7812 11.8125H49.2188C50.3061 11.8125 51.1875 12.6939 51.1875 13.7812C51.1875 14.8686 50.3061 15.75 49.2188 15.75H13.7812C12.6939 15.75 11.8125 14.8686 11.8125 13.7812ZM11.8125 23.625C11.8125 22.5377 12.6939 21.6562 13.7812 21.6562H49.2188C50.3061 21.6562 51.1875 22.5377 51.1875 23.625C51.1875 24.7123 50.3061 25.5938 49.2188 25.5938H13.7812C12.6939 25.5938 11.8125 24.7123 11.8125 23.625ZM11.8125 33.4688C11.8125 32.3814 12.6939 31.5 13.7812 31.5H33.4688C34.5561 31.5 35.4375 32.3814 35.4375 33.4688C35.4375 34.5561 34.5561 35.4375 33.4688 35.4375H13.7812C12.6939 35.4375 11.8125 34.5561 11.8125 33.4688Z" fill="white"/>
</svg>
