<svg width="63" height="63" viewBox="0 0 63 63" fill="none" xmlns="http://www.w3.org/2000/svg">
<path d="M34.9012 0.181358C31.1382 -0.759392 27.6447 2.08728 27.3905 5.77178C27.1047 9.91244 26.4872 13.7088 25.7023 15.9735C25.2122 17.3876 23.8177 19.958 21.6121 22.4228C19.4155 24.8776 16.5605 27.064 13.2179 27.9758C10.5741 28.697 7.875 30.9878 7.875 34.3356V50.0895C7.875 53.4145 10.5617 55.8534 13.5762 56.1731C17.7873 56.6197 19.734 57.808 21.719 59.0198L21.9065 59.1341C22.9805 59.7886 24.1832 60.5094 25.729 61.0416C27.2906 61.5794 29.1192 61.8995 31.5 61.8995H45.2812C48.9709 61.8995 51.5771 60.0178 52.8969 57.7083C53.5427 56.578 53.8945 55.3213 53.8945 54.1167C53.8945 53.5168 53.8049 52.8878 53.592 52.2879C54.3852 51.2551 55.0916 50.0145 55.5162 48.7408C55.9482 47.4445 56.1916 45.7424 55.529 44.2195C55.8013 43.705 56.005 43.1606 56.1567 42.6298C56.4606 41.566 56.6016 40.3963 56.6016 39.2588C56.6016 38.1213 56.4606 36.9516 56.1567 35.8879C56.0208 35.4125 55.8432 34.9261 55.612 34.4601C57.1658 32.2101 57.2596 29.7315 56.533 27.6352C55.725 25.304 53.8507 23.3057 51.8101 22.6255C48.4745 21.5136 44.7091 21.5392 41.9038 21.7943C41.2808 21.8509 40.6952 21.9198 40.1602 21.9931C42.0126 14.1266 40.7807 7.44983 39.9128 4.2368C39.372 2.2346 37.7514 0.893898 35.9306 0.438694L34.9012 0.181358ZM45.2812 57.9619H31.5C29.4891 57.9619 28.1017 57.6942 27.0109 57.3186C25.9043 56.9375 25.0183 56.4194 23.9555 55.7717L23.7983 55.6759C21.6136 54.343 19.0796 52.7971 13.9914 52.2575C12.6809 52.1185 11.8125 51.1138 11.8125 50.0895V34.3355C11.8125 33.3341 12.702 32.1978 14.2541 31.7744C18.5671 30.5979 22.0376 27.852 24.5463 25.0485C27.0461 22.2549 28.7371 19.2411 29.4227 17.2629C30.378 14.5066 31.0248 10.3016 31.3186 6.04278C31.417 4.61619 32.739 3.69942 33.9462 4.00124L34.9756 4.25857C35.608 4.41667 35.993 4.82457 36.1115 5.26357C36.9792 8.47567 38.2696 15.6774 35.5385 23.8706C35.3113 24.5523 35.4735 25.3036 35.9617 25.8308C36.4498 26.3579 37.1868 26.5771 37.8837 26.4031L37.894 26.4006L37.9479 26.3877C37.9981 26.3759 38.0762 26.3579 38.1798 26.335C38.3871 26.2893 38.696 26.2246 39.0875 26.1521C39.872 26.0068 40.9796 25.832 42.2603 25.7155C44.869 25.4784 47.9943 25.504 50.5649 26.3609C51.2559 26.5912 52.3348 27.546 52.8126 28.9247C53.2321 30.1349 53.1506 31.5583 51.7641 32.9448L50.372 34.3369L51.7641 35.729C51.9317 35.8966 52.1748 36.284 52.3707 36.9696C52.5589 37.6285 52.6641 38.4275 52.6641 39.2588C52.6641 40.09 52.5589 40.8891 52.3707 41.548C52.1748 42.2335 51.9317 42.621 51.7641 42.7885L50.372 44.1806L51.7641 45.5728C51.9493 45.758 52.1901 46.2674 51.7807 47.4956C51.3961 48.6495 50.5894 49.8695 49.7954 50.6635L48.4033 52.0556L49.7954 53.4478C49.816 53.4684 49.957 53.6431 49.957 54.1167C49.957 54.5732 49.8166 55.1623 49.4781 55.7547C48.8291 56.8904 47.4978 57.9619 45.2812 57.9619Z" fill="white"/>
</svg>
