<svg width="79" height="66" viewBox="0 0 79 66" fill="none" xmlns="http://www.w3.org/2000/svg">
<path d="M1.55234 42L12.0323 12.92H15.7523L26.2323 42H22.1523L14.0323 18.56L13.7523 17.4L13.4723 18.56L8.99234 31.4L8.55234 32.24L9.03234 32.16H14.4323C15.0723 32.16 15.6057 32.2933 16.0323 32.56C16.4723 32.8267 16.8323 33.18 17.1123 33.62C17.4057 34.06 17.6457 34.5333 17.8323 35.04H7.75234L5.35234 42H1.55234ZM40.2933 42.48C39.1599 42.48 37.8266 42.34 36.2933 42.06C34.7733 41.7933 33.3333 41.3333 31.9733 40.68L33.0133 38.08C34.2133 38.6133 35.4199 39 36.6333 39.24C37.8599 39.48 38.9333 39.6 39.8533 39.6C41.7333 39.6 43.1933 39.1267 44.2333 38.18C45.2866 37.22 45.8133 36.0533 45.8133 34.68C45.8133 33.5333 45.4866 32.5733 44.8333 31.8C44.1933 31.0267 43.3599 30.34 42.3333 29.74C41.3199 29.14 40.2399 28.5533 39.0933 27.98C37.9466 27.4067 36.8599 26.76 35.8333 26.04C34.8199 25.32 33.9866 24.4533 33.3333 23.44C32.6933 22.4133 32.3733 21.1467 32.3733 19.64C32.3733 18.3067 32.7133 17.0933 33.3933 16C34.0733 14.9067 35.0199 14.0333 36.2333 13.38C37.4466 12.7267 38.8533 12.4 40.4533 12.4C41.5999 12.4 42.7533 12.4933 43.9133 12.68C45.0733 12.8667 46.3333 13.1733 47.6933 13.6L46.6133 16.2C45.4799 15.8533 44.4199 15.62 43.4333 15.5C42.4599 15.38 41.5999 15.32 40.8533 15.32C39.3599 15.32 38.2133 15.7533 37.4133 16.62C36.6133 17.4733 36.2133 18.48 36.2133 19.64C36.2133 20.68 36.5399 21.5733 37.1933 22.32C37.8466 23.0667 38.6866 23.74 39.7133 24.34C40.7399 24.94 41.8333 25.5467 42.9933 26.16C44.1533 26.76 45.2466 27.44 46.2733 28.2C47.2999 28.9467 48.1399 29.8467 48.7933 30.9C49.4466 31.9533 49.7733 33.24 49.7733 34.76C49.7733 36.08 49.4066 37.3267 48.6733 38.5C47.9399 39.6733 46.8666 40.6333 45.4533 41.38C44.0399 42.1133 42.3199 42.48 40.2933 42.48ZM57.3217 42V12.92H73.8817V15.8H61.1217V39.12H74.4817V42H57.3217ZM62.6417 28.16C62.8284 27.6533 63.0684 27.1867 63.3617 26.76C63.6551 26.3333 64.0217 25.9933 64.4617 25.74C64.9017 25.4867 65.4417 25.36 66.0817 25.36H72.5217V28.16H62.6417Z" fill="white"/>
<path d="M31.0212 61.576V60.104C31.0212 59.9013 30.9892 59.768 30.9252 59.704C30.8612 59.64 30.7279 59.608 30.5252 59.608H29.7412C28.8985 59.608 28.4772 59.1867 28.4772 58.344V56.504C28.4772 55.6613 28.8985 55.24 29.7412 55.24H30.8292C31.6719 55.24 32.0932 55.6613 32.0932 56.504V57.288H31.0052V56.664C31.0052 56.4507 30.9732 56.3173 30.9092 56.264C30.8559 56.2 30.7225 56.168 30.5092 56.168H30.0612C29.8479 56.168 29.7092 56.2 29.6452 56.264C29.5919 56.3173 29.5652 56.4507 29.5652 56.664V58.184C29.5652 58.3867 29.5919 58.52 29.6452 58.584C29.7092 58.648 29.8479 58.68 30.0612 58.68H30.8452C31.6879 58.68 32.1092 59.1013 32.1092 59.944V61.736C32.1092 62.5787 31.6879 63 30.8452 63H29.7732C28.9305 63 28.5092 62.5787 28.5092 61.736V60.952H29.5972V61.576C29.5972 61.7787 29.6239 61.912 29.6772 61.976C29.7412 62.04 29.8799 62.072 30.0932 62.072H30.5252C30.7279 62.072 30.8612 62.04 30.9252 61.976C30.9892 61.912 31.0212 61.7787 31.0212 61.576ZM36.1712 55.24H36.8112C37.6539 55.24 38.0752 55.6613 38.0752 56.504V63H36.9712V56.68C36.9712 56.4773 36.9392 56.344 36.8752 56.28C36.8219 56.216 36.6885 56.184 36.4752 56.184H35.8352C35.6432 56.184 35.5045 56.2267 35.4192 56.312C35.3339 56.3973 35.2912 56.5467 35.2912 56.76V63H34.1872V52.296H35.2912V55.768C35.4085 55.416 35.7019 55.24 36.1712 55.24ZM41.4993 55.24H43.1313C43.974 55.24 44.3953 55.6613 44.3953 56.504V61.736C44.3953 62.5787 43.974 63 43.1313 63H41.4993C40.6566 63 40.2353 62.5787 40.2353 61.736V56.504C40.2353 55.6613 40.6566 55.24 41.4993 55.24ZM43.3073 61.56V56.68C43.3073 56.4773 43.2753 56.344 43.2113 56.28C43.1473 56.216 43.014 56.184 42.8113 56.184H41.8193C41.6166 56.184 41.4833 56.216 41.4193 56.28C41.3553 56.344 41.3233 56.4773 41.3233 56.68V61.56C41.3233 61.7733 41.3553 61.912 41.4193 61.976C41.4833 62.0293 41.6166 62.056 41.8193 62.056H42.8113C43.014 62.056 43.1473 62.0293 43.2113 61.976C43.2753 61.912 43.3073 61.7733 43.3073 61.56ZM48.5368 55.24H49.1768C50.0195 55.24 50.4408 55.6613 50.4408 56.504V61.736C50.4408 62.5787 50.0195 63 49.1768 63H48.5368C48.0675 63 47.7741 62.824 47.6568 62.472V65.256H46.5528V55.24H47.6568V55.768C47.7741 55.416 48.0675 55.24 48.5368 55.24ZM49.3368 61.56V56.68C49.3368 56.4773 49.3048 56.344 49.2408 56.28C49.1875 56.216 49.0541 56.184 48.8408 56.184H48.2008C48.0088 56.184 47.8701 56.2267 47.7848 56.312C47.6995 56.3973 47.6568 56.5467 47.6568 56.76V61.48C47.6568 61.6933 47.6995 61.8427 47.7848 61.928C47.8701 62.0133 48.0088 62.056 48.2008 62.056H48.8408C49.0541 62.056 49.1875 62.0293 49.2408 61.976C49.3048 61.912 49.3368 61.7733 49.3368 61.56Z" fill="#FF4B1B"/>
</svg>
