<svg width="53" height="63" viewBox="0 0 53 63" fill="none" xmlns="http://www.w3.org/2000/svg">
<path d="M16.4222 6.26393C12.3109 7.42306 8.14738 8.79341 5.68318 9.62974C5.00521 9.85984 4.52913 10.4705 4.43973 11.1683C2.34292 27.5345 7.18769 39.4799 12.9685 47.3457C15.8709 51.2948 19.0112 54.2157 21.6291 56.1358C22.9392 57.0967 24.0973 57.7915 25.0073 58.237C25.4629 58.4601 25.8355 58.6105 26.1186 58.7017C26.3516 58.7768 26.4715 58.7945 26.5 58.7987C26.5285 58.7945 26.6484 58.7768 26.8815 58.7017C27.1645 58.6105 27.5371 58.4601 27.9927 58.237C28.9027 57.7915 30.0608 57.0967 31.3709 56.1358C33.9888 54.2157 37.1291 51.2948 40.0315 47.3457C45.8123 39.4799 50.6571 27.5345 48.5603 11.1683C48.4709 10.4705 47.9948 9.85984 47.3168 9.62974C44.8526 8.7934 40.6891 7.42306 36.5778 6.26393C32.3743 5.07879 28.5096 4.2 26.5 4.2C24.4904 4.2 20.6257 5.07879 16.4222 6.26393ZM15.4141 2.20363C19.5244 1.04479 23.8898 0 26.5 0C29.1102 0 33.4756 1.04479 37.5859 2.20363C41.7884 3.38848 46.0223 4.78252 48.5129 5.6278C50.5913 6.33321 52.1634 8.24351 52.4654 10.6001C54.724 28.2296 49.4867 41.292 43.1344 49.9353C39.9702 54.2407 36.5313 57.4496 33.6054 59.5955C32.1436 60.6677 30.7887 61.4901 29.6382 62.0535C28.5751 62.574 27.4377 63 26.5 63C25.5623 63 24.4249 62.574 23.3618 62.0535C22.2113 61.4901 20.8564 60.6677 19.3946 59.5955C16.4688 57.4496 13.0298 54.2407 9.86558 49.9353C3.5133 41.292 -1.72399 28.2296 0.534663 10.6001C0.836586 8.24352 2.40867 6.33322 4.48712 5.6278C6.97769 4.78252 11.2116 3.38848 15.4141 2.20363Z" fill="white"/>
</svg>
